<svg xmlns="http://www.w3.org/2000/svg" width="423.744" height="115.822" viewBox="0 0 423.744 115.822">
  <g id="Group_3" data-name="Group 3" transform="translate(-42.785 -73.07)">
    <g id="Group_1" data-name="Group 1" transform="translate(-35.957 18.25)">
      <path id="Path_2" data-name="Path 2" d="M136.667,153.642A57.828,57.828,0,0,1,78.8,98.236C77.4,65.8,103.439,38.97,134.388,37.857,166.627,36.7,192.742,62.4,194.325,92.589A57.856,57.856,0,0,1,136.667,153.642Z" transform="translate(0 17)" fill="#df1882"/>
      <path id="Path_10" data-name="Path 10" d="M119.487,77.82c0,9.248-.024,18.5.032,27.746.005,1.187-.374,1.378-1.439,1.339-12.451-.462-23.773-9.959-26.678-22.426a29.187,29.187,0,0,1,23.688-35.416c1.028-.17,2.08-.191,3.115-.324.967-.125,1.325.133,1.312,1.224-.064,5.609-.029,11.221-.029,16.83Z" transform="translate(19.687 35.031)" fill="#fefefe"/>
      <path id="Path_11" data-name="Path 11" d="M105.426,68.081c0-4.178.027-8.353-.021-12.53-.008-.906.239-1.073,1.115-.98a13.651,13.651,0,0,1-.133,27.164c-.818.08-.98-.143-.975-.892C105.44,76.588,105.426,72.334,105.426,68.081Z" transform="translate(44.15 44.7)" fill="#fefefe"/>
      <g id="Group_2" data-name="Group 2" transform="translate(-26)">
        <path id="Path_3" data-name="Path 3" d="M164.611,48.688c8.833.037,15.138,1.726,20.482,6.249a23.824,23.824,0,0,1,5.389,6.632.84.84,0,0,1-.3,1.323,18.794,18.794,0,0,1-9.107,3.479.843.843,0,0,1-.956-.433c-4.682-7.938-17.8-8.77-24.962-2.852a17.365,17.365,0,0,0-6.228,11.8c-.608,5.02.045,9.848,3.057,14.063,3.846,5.381,9.242,7.678,15.776,7.362,5.583-.271,10.044-2.6,13.032-7.442a.938.938,0,0,1,1.076-.428,22.205,22.205,0,0,1,8.823,3.03c.839.5.868.924.436,1.721A24.993,24.993,0,0,1,173.6,106.32c-10.044,2.093-19.252.215-27.167-6.571a26.265,26.265,0,0,1-8.86-16.27c-1.208-7.521-.3-14.783,3.867-21.319C147.269,53.017,155.9,48.908,164.611,48.688Z" transform="translate(96.607 17.996)" fill="#df1882"/>
        <path id="Path_4" data-name="Path 4" d="M220.683,75.819c.191,11.521-9.017,20.856-21.406,20.591a20.4,20.4,0,0,1-20.392-20.944c.189-11.763,9.038-20.453,21.324-20.32C210.659,55.26,220.746,62.654,220.683,75.819Z" transform="translate(165.818 28.687)" fill="#df1882"/>
        <path id="Path_5" data-name="Path 5" d="M202.218,75.848c0,11.505-8.661,20.11-19.961,20.543-12.663.486-21.834-8.833-21.858-20.386-.029-13.417,9.989-20.684,20.309-20.854C193.334,54.942,202.146,63.557,202.218,75.848Z" transform="translate(135.213 28.692)" fill="#df1882"/>
        <path id="Path_6" data-name="Path 6" d="M263.065,79.8c.12,3.9-.252,8.592.276,13.258.1.887-.417.661-.834.579a19.2,19.2,0,0,1-8.193-3.344c-.709-.544-.964-.462-1.487.2a15.513,15.513,0,0,1-19.3,3.947c-4.268-2.284-6.61-5.769-6.353-10.711.239-4.542,2.863-7.418,6.788-9.341,2.486-1.219,5.182-1.485,7.861-1.856,2.568-.359,5.144-.667,7.694-1.113,2.682-.473,3.546-2.425,2.22-4.812a4.682,4.682,0,0,0-2.613-2.188,10.175,10.175,0,0,0-7.269.069,6.274,6.274,0,0,0-3.546,3.49c-.194.454-.332.791-.98.6a22.653,22.653,0,0,1-7.468-3.625,1.054,1.054,0,0,1-.321-1.631,15.154,15.154,0,0,1,8.663-6.8,23.671,23.671,0,0,1,16.485.486,13.008,13.008,0,0,1,8.371,12.376C263.086,72.6,263.065,75.816,263.065,79.8Z" transform="translate(245.751 28.898)" fill="#df1882"/>
        <path id="Path_7" data-name="Path 7" d="M231.484,82.628c1.089-2.834,2.072-5.381,3.044-7.93q3.454-9.035,6.895-18.078c.186-.483.3-.887.993-.879,3.447.037,6.895.016,10.347.016.215.449-.085.765-.218,1.089q-7.649,18.592-15.3,37.182a1.36,1.36,0,0,1-1.5,1.046c-2.866-.064-5.734-.053-8.6-.005a1.314,1.314,0,0,1-1.463-.932q-7.948-18.66-15.975-37.283c-.428-.993-.194-1.129.765-1.113,3.1.045,6.2.08,9.3-.019,1.1-.035,1.418.462,1.756,1.331C224.783,65.479,228.077,73.892,231.484,82.628Z" transform="translate(216.518 29.639)" fill="#df1882"/>
        <path id="Path_8" data-name="Path 8" d="M198.524,76.048q0-8.768,0-17.531c0-1.285,0-1.285,1.248-.821a21.133,21.133,0,0,1,6.94,4.555c.539.5.776.643,1.3-.114,3.389-4.868,8.278-6.555,14-6.385.664.019.839.337.834.953-.021,2.94-.037,5.883.008,8.823.013.853-.321.956-1.036.831a12.623,12.623,0,0,0-6.746.566c-3.538,1.344-5.1,4.172-5.591,7.747a59.821,59.821,0,0,0-.186,7.652q-.044,5.8.011,11.609c.008.823-.244,1.038-1.046,1.028q-4.358-.068-8.717,0c-.81.013-1.044-.223-1.038-1.036C198.537,87.965,198.524,82.008,198.524,76.048Z" transform="translate(198.311 29.674)" fill="#df1882"/>
        <path id="Path_9" data-name="Path 9" d="M249.758,68.711a6.522,6.522,0,0,1-6.666-6.549,6.627,6.627,0,1,1,6.666,6.549Z" transform="translate(272.141 29.228)" fill="#df1a84"/>
        <path id="Path_12" data-name="Path 12" d="M203.142,69.8c-.074,3.54-1,6.743-3.965,8.985a10.065,10.065,0,0,1-16.039-6.706,13.892,13.892,0,0,1,.728-7.288c1.75-4.295,5.753-6.491,10.7-5.941a9.689,9.689,0,0,1,8.329,8.177A12.416,12.416,0,0,1,203.142,69.8Z" transform="translate(172.571 34.678)" fill="#fefefe"/>
        <path id="Path_13" data-name="Path 13" d="M174.58,80.806c-5.585.016-9.811-4.17-10.082-10.132-.2-4.374.914-8.257,5-10.6,5.243-3.006,13.672-1.025,14.955,7.37a13.942,13.942,0,0,1-.406,6.414A9.567,9.567,0,0,1,174.58,80.806Z" transform="translate(141.965 34.652)" fill="#fefefe"/>
        <path id="Path_14" data-name="Path 14" d="M245.423,65.542c.005,6.852-4.738,9.107-9.888,8.642a4.477,4.477,0,0,1-4.223-4.074,4.556,4.556,0,0,1,3.277-4.658,34.791,34.791,0,0,1,5.583-.98c1.333-.228,2.7-.295,4.01-.595,1.076-.25,1.41.05,1.243,1.086A3.826,3.826,0,0,0,245.423,65.542Z" transform="translate(252.603 43.009)" fill="#fefefe"/>
        <path id="Path_15" data-name="Path 15" d="M249.113,67.257a5.639,5.639,0,0,1-5.684-5.769,5.731,5.731,0,1,1,5.684,5.769Z" transform="translate(272.699 29.786)" fill="#fefefe"/>
        <path id="Path_16" data-name="Path 16" d="M250.037,64.1a1.056,1.056,0,0,1-1.519-.6c-.337-.651-.77-1.254-1.092-1.91-.305-.627-.831-.47-1.3-.436-.613.048-.374.568-.4.906-.035.576-.013,1.158-.016,1.737,0,.374-.247.422-.547.417s-.409-.157-.409-.43V56.95c0-.282.125-.433.414-.425a13.885,13.885,0,0,1,2.539.1,2.137,2.137,0,0,1,.935,3.716c-.462.457-.478.738-.151,1.232C249.028,62.373,249.5,63.212,250.037,64.1Z" transform="translate(274.898 30.963)" fill="#df1a83"/>
        <path id="Path_17" data-name="Path 17" d="M245.95,59.911c-.754.138-.916-.4-.744-.969.215-.717-.762-1.92.669-2.117,1.227-.167,1.907.465,1.936,1.453C247.844,59.308,247.207,59.89,245.95,59.911Z" transform="translate(275.43 31.425)" fill="#fdf6fa"/>
      </g>
    </g>
    <text id="Contact_manager" data-name="Contact manager" transform="translate(213 175)" fill="#707070" font-size="26" font-family="SegoeUI, Segoe UI"><tspan x="0" y="0">Contact manager</tspan></text>
  </g>
</svg>
